<svg xmlns="http://www.w3.org/2000/svg" version="1.1" x="0" y="0" viewBox="0 0 100 125" enable-background="new 0 0 100 100" xml:space="preserve"><path fill-rule="evenodd" clip-rule="evenodd" fill="#E4F0F6" d="M99.2 54.5c-1.2 0.2-2.4 0.4-3.6 0.6 -5.3 0.9-10.7 1.8-16 2.8 -6.3 1.1-12.7 2.2-19 3.3 -5.9 1-11.7 2-17.6 3 -3.1 0.5-6.2 1.1-9.2 1.6 -0.1 0-0.2 0-0.3 0.1 0.1 10.3 0.1 20.6 0.2 31 0.9-0.2 1.7-0.4 2.5-0.5 12.9-2.8 25.8-5.7 38.7-8.6 7.4-1.6 14.8-3.3 22.1-4.9 0.3-0.1 0.4-0.2 0.4-0.5 0.2-3.4 0.4-6.7 0.6-10.1 0.2-3.8 0.5-7.6 0.7-11.3 0.1-1.8 0.2-3.5 0.3-5.3 0-0.2 0.1-0.4 0.1-0.6C99.2 54.9 99.2 54.7 99.2 54.5zM69.9 3.3c-0.7 0.1-1.3 0.1-2 0.2 -5 0.3-10 0.5-14.9 0.8 -6 0.3-11.9 0.7-17.9 1 -4.4 0.3-8.9 0.5-13.3 0.7 -2.6 0.1-5.3 0.3-7.9 0.4 -0.2 0-0.3 0-0.6 0.1 0.2 0.1 0.4 0.2 0.5 0.3 1.2 0.6 2.2 1.4 2.9 2.4 0.1 0.2 0.2 0.3 0.5 0.3 4.1-0.2 8.1-0.5 12.2-0.7 5-0.3 9.9-0.6 14.9-0.8 3.9-0.2 7.8-0.4 11.7-0.6 4.4-0.2 8.9-0.5 13.3-0.8 1.5-0.1 3.1-0.2 4.6-0.3 0.1 0 0.2 0 0.4 0 -0.2-0.3-0.3-0.5-0.5-0.8 -0.7-0.9-1.7-1.5-2.8-2 -0.1-0.1-0.2-0.1-0.4-0.2C70.4 3.3 70.1 3.3 69.9 3.3zM8.3 48.5c3.7 2.1 7.3 4.1 11 6.2 4.2 2.4 8.4 4.7 12.6 7.1 0.2 0.1 0.5 0.2 0.8 0.1 5.5-0.9 11-1.8 16.5-2.8 6.5-1.1 13-2.2 19.5-3.3 6-1 11.9-2 17.9-3 2.9-0.5 5.8-1 8.7-1.5 -10.4-3.3-20.8-6.5-31.2-9.8 3.3-9.4 6.5-22.9 9.8-32.3 -0.9 0-1.7 0.1-2.5 0.1 -3.1 0.2-6.3 0.4-9.4 0.6 -3.6 0.2-7.2 0.4-10.8 0.7 -3.1 0.2-6.1 0.4-9.2 0.6 -3.6 0.2-7.2 0.4-10.7 0.7 -3.1 0.2-6.2 0.4-9.3 0.6 -1.5 0.1-2.9 0.2-4.4 0.3 -0.3 0-0.4 0.2-0.4 0.4 -0.6 2.1-1.1 4.1-1.7 6.2 -2.3 8.3-4.6 20.6-6.8 28.9C8.4 48.2 8.4 48.3 8.3 48.5zM6 50.6c0.1 2.4 0.1 4.8 0.2 7.1 0.1 2.8 0.2 5.6 0.2 8.3 0.1 3.5 0.2 7 0.3 10.6 0 0.3 0.1 0.5 0.4 0.7 7.4 6.2 14.7 12.4 22 18.5 0.1 0.1 0.3 0.2 0.5 0.4 0-0.7 0-1.3 0-1.9 0-3.7-0.1-7.5-0.1-11.2 -0.1-5.1-0.1-10.2-0.2-15.3 0-1-0.1-2-0.1-3 0-0.3-0.1-0.5-0.4-0.7 -5.5-3.3-11-6.6-16.5-9.9 -2-1.2-4.1-2.4-6.1-3.7C6.3 50.8 6.2 50.7 6 50.6zM5.2 47c0.4-1.3 0.7-2.6 1.1-3.8 2.4-8.7 4.8-21.5 7.2-30.3 0.2-0.6 0.4-1.2 0.5-1.9 0-0.1 0-0.3-0.1-0.4 -1.1-1.2-2.4-2.1-4.2-2.3C8.5 8.2 7.5 8.6 6.7 9.4c-0.9 0.8-1.4 1.9-1.9 3 -2.5 5.1-3.8 10.4-3.6 16 0.1 5 1.4 13.8 3.8 18.3C5 46.8 5.1 46.9 5.2 47z"/></svg>